<svg xmlns="http://www.w3.org/2000/svg" version="1.1" xmlns:xlink="http://www.w3.org/1999/xlink" xmlns:svgjs="http://svgjs.dev/svgjs" width="100%" height="100%" viewBox="0 0 1000 600"><rect width="1000" height="600" x="0" y="0" fill="#295F2"/><g><circle r="166.66666666666666" cx="389.4530131022135" cy="411.6751394836788" fill="#ffffff" transform="matrix(0.561075975116135,0,0,0.561075975116135,0,69.01898683477577)"/><path d="M322.67709275890303 422.18437517718104L322.67709275890303 422.18437517718104L323.07567557016796 452.60952977040427L322.4910874469794 469.27029128127845Q322.11907682313216 474.7973062641522 318.5584037091654 478.6237012522955Q315.0243027826163 482.4500962404389 310.0553037355135 483.9912831106633L310.0553037355135 483.9912831106633Q301.63192032411456 486.6750740398472 296.955215338606 486.6750740398472Q292.25193816567986 486.6750740398472 292.25193816567986 482.4500962404389L292.25193816567986 482.4500962404389L292.6505209769448 480.1648881225199Q294.9357290948637 473.6547022051927 298.2041081472362 459.30572099965514L298.2041081472362 459.30572099965514L299.160706894272 454.5227272644759Q304.5017165652221 424.31015017059406 304.5017165652221 382.96382654871167L304.5017165652221 382.96382654871167Q304.5017165652221 367.286235972291 301.0739043883437 360.40403943111653L301.0739043883437 360.40403943111653Q298.7621240830071 357.90625381385627 298.7621240830071 354.85045226082514L298.7621240830071 354.85045226082514Q298.7621240830071 346.4270688494262 312.81881122695034 341.564358551994Q326.9020705583113 336.6750760671442 336.5477745909227 336.6750760671442Q346.2200508109517 336.6750760671442 348.31925361694704 344.69987666727815L348.31925361694704 344.69987666727815Q350.81703923420724 353.3092653906007 352.331653917014 362.8752528609591L352.331653917014 362.8752528609591Q355.60003296938646 382.96382654871167 358.25725171115266 382.96382654871167L358.25725171115266 382.96382654871167Q360.1704492052244 382.96382654871167 361.3396254516015 380.67861843079277L361.3396254516015 380.67861843079277Q368.03581668085235 363.6458462960713 370.028730737177 357.53424319000897Q372.04821698091934 351.396067896529 372.60623291669026 349.88145321372224Q373.1908210398788 348.3402663434979 376.4326279048336 345.0984594785431Q379.70100695720606 341.83008042617064 384.6700060043089 340.3154657433639L384.6700060043089 340.3154657433639Q392.13679066867195 337.44566950225635 401.5167728271067 337.44566950225635L401.5167728271067 337.44566950225635Q417.0083580916037 337.44566950225635 417.0083580916037 344.1418607315072L417.0083580916037 344.1418607315072Q417.0083580916037 346.24106353750255 415.2811659094557 349.6954479017986L415.2811659094557 349.6954479017986Q410.49817217427653 356.7636497548968 408.5849746802048 377.22423406649665Q406.67177718613317 397.7113905655142 406.67177718613317 417.6139589413432L406.67177718613317 417.6139589413432Q406.67177718613317 457.57852881750705 412.22536435642456 461.4049238056504L412.22536435642456 461.4049238056504Q415.8657540326443 464.2747200467579 415.8657540326443 468.20740378457197Q415.8657540326443 472.14008752238595 410.49817217427653 475.9664825105293Q405.13059031590876 479.7928774986726 398.8329818979228 481.70607499274433Q392.5088012925192 483.61927248681604 388.01810161893434 483.61927248681604Q383.52740194534937 483.61927248681604 381.02961632808916 481.70607499274433Q378.5584028982466 479.7928774986726 378.15982008698165 477.87968000460097L378.15982008698165 477.87968000460097L377.78780946313435 475.9664825105293Q376.83121071609855 472.6981034581569 376.83121071609855 463.9027094229107L376.83121071609855 463.9027094229107Q376.83121071609855 449.7397335292967 378.7444082101702 426.78136360043663L378.7444082101702 426.78136360043663L379.30242414594113 419.89916705926214Q381.02961632808916 404.5935871066887 381.02961632808916 395.8779096336955Q381.02961632808916 387.18880434811996 379.51500164528244 387.18880434811996L379.51500164528244 387.18880434811996Q375.6886066571391 387.18880434811996 365.53803106359214 422.95496861229327L365.53803106359214 422.95496861229327Q361.3396254516015 437.4899551297545 358.46982921049397 444.0001410470817L358.46982921049397 444.0001410470817L357.30065296411686 446.68393197626557Q354.6434342223506 453.5661285174401 347.9472429930998 453.5661285174401L347.9472429930998 453.5661285174401Q345.8214679996868 453.5661285174401 344.4928586288037 452.42352445848064Q343.1642492579206 451.28092039952116 342.76566644665564 448.9691400941845L342.76566644665564 448.9691400941845Q339.3378542697772 440.1737460589384 331.10047617030193 402.68038961261703L331.10047617030193 402.68038961261703L328.41668524111805 390.43061121307477Q327.46008649408225 387.3748096600436 325.94547181127547 387.3748096600436L325.94547181127547 387.3748096600436Q322.67709275890303 387.3748096600436 322.67709275890303 422.18437517718104ZM486.6540613132963 448.22511884649Q486.6540613132963 466.18791754082963 479.55928727278047 474.23929032838123Q472.49108541968235 482.2640909285152 445.7063205026789 482.2640909285152L445.7063205026789 482.2640909285152Q433.4565421031366 482.2640909285152 427.2386502474037 480.9354815576321Q421.02075839167077 479.5802999993314 419.6921490207876 477.95939656685397Q418.3369674624868 476.33849313437656 418.3369674624868 473.28269158134543L418.3369674624868 473.28269158134543L418.73555027375176 470.4128953402379Q423.11996119766604 446.68393197626557 423.11996119766604 405.9221964775718L423.11996119766604 405.9221964775718L422.3493677625538 373.3978390783533Q421.97735713870657 366.5156425371788 417.9649568386396 360.9620553668874L417.9649568386396 360.9620553668874Q415.4671712213794 358.4908419370448 415.4671712213794 355.80705100786093L415.4671712213794 355.80705100786093Q415.4671712213794 349.48287040245737 427.0526449354801 343.37126729639505Q438.6115464621631 337.2596641903327 445.1217323794903 337.2596641903327Q451.63191829681756 337.2596641903327 451.63191829681756 342.60067386128287L451.63191829681756 342.60067386128287Q449.13413267955735 361.73264880199963 448.6558333060394 377.51652812809095Q448.1775339325215 393.3004074541823 448.1775339325215 413.4952698916055Q448.1775339325215 433.66356014161113 448.3901114318628 437.8885379410194Q448.57611674378643 442.08694355301003 448.6558333060394 442.48552636427496Q448.76212205571005 442.8575369881222 449.240421429228 443.81413573515806Q449.7187208027459 444.7707344821939 450.6753195497817 445.54132791730615L450.6753195497817 445.54132791730615Q452.96052766770066 447.2685200994542 457.7435214028799 447.2685200994542L457.7435214028799 447.2685200994542Q468.26610762027406 447.2685200994542 474.5902882256777 439.9877407470147L474.5902882256777 439.9877407470147Q477.64608977870887 436.93193919398357 480.70189133173994 436.93193919398357L480.70189133173994 436.93193919398357Q486.6540613132963 436.93193919398357 486.6540613132963 448.22511884649L486.6540613132963 448.22511884649Z " fill="#ff0000" transform="matrix(0.561075975116135,0,0,0.561075975116135,0,69.01898683477577)"/><path d="M731.4419482830148 445.7450531428464L731.4419482830148 445.7450531428464Q734.273439836587 447.7247952046937 734.273439836587 450.87857034972944L734.273439836587 450.87857034972944Q734.273439836587 457.00195858753614 726.0552082542675 461.14560476349556Q717.8599969284811 465.289250939455 710.8848591989495 465.289250939455L710.8848591989495 465.289250939455Q705.4290584006029 465.289250939455 702.9428706950273 462.8030632338793L702.9428706950273 462.8030632338793Q700.9401083766469 460.823321172032 700.7789665809152 456.9328978179368Q700.6178247851834 453.0194542073085 700.4566829894517 448.55352443988556Q700.2955411937199 444.08759467246267 700.2034601675874 440.4273738836985Q700.1113791414551 436.7901733514675 698.6380827233362 434.2119046197594Q697.1417660486842 431.6566561445845 695.8065911697639 431.15021050085613L695.8065911697639 431.15021050085613Q694.3102744951119 430.482623061396 687.6113798439775 430.482623061396Q680.88946493631 430.482623061396 677.252264404079 431.978939736048L677.252264404079 431.978939736048Q673.5920436153149 433.63639820643175 670.2771266745474 447.4025116132302L670.2771266745474 447.4025116132302Q669.4483974393555 450.7174285539977 669.2872556436238 451.03971214546124L669.2872556436238 451.03971214546124Q664.8213258762008 466.11798017464685 647.5791537329031 466.11798017464685L647.5791537329031 466.11798017464685Q639.4530031767162 466.11798017464685 639.4530031767162 461.3067465592273L639.4530031767162 461.3067465592273Q639.4530031767162 457.830687822728 642.1003326780234 453.68704164676865L642.1003326780234 453.68704164676865L643.1132239654802 452.19072497211664Q655.3600004410936 429.81503562193586 665.3968322895286 396.09035980093296Q675.4336641379635 362.36568397993005 675.4336641379635 355.06826265893494L675.4336641379635 355.06826265893494Q675.4336641379635 352.25979136189574 674.5128538766393 350.18796827391606Q673.5920436153149 348.1161451859364 673.5920436153149 346.94211210274784L673.5920436153149 346.94211210274784Q673.5920436153149 338.65481975082906 687.8646026658417 338.65481975082906L687.8646026658417 338.65481975082906Q696.6353204049558 338.65481975082906 703.0119314646266 342.061817717729Q709.4115627808306 345.46881568462896 711.0690212512144 352.743216749091L711.0690212512144 352.743216749091Q718.0211387242128 407.4393462717551 723.3157977268277 426.3389768854366L723.3157977268277 426.3389768854366Q727.1371603113236 442.7524197935424 731.4419482830148 445.7450531428464ZM690.9953575543444 385.73124436103444L690.5119321671491 383.91264409491896Q690.3507903714174 381.9329020330717 689.3378990839607 381.9329020330717L689.3378990839607 381.9329020330717Q688.8544736967654 381.9329020330717 687.6804406135769 383.40619845119056L687.6804406135769 383.40619845119056Q680.88946493631 401.3159580339484 680.88946493631 408.1069337112152L680.88946493631 408.1069337112152Q680.88946493631 410.1096960295956 682.2246398152303 410.59312141679084Q683.5367944376175 411.09956706051923 687.1970152263816 411.09956706051923Q690.8342157586127 411.09956706051923 692.422613459397 410.1787567991949Q693.9879909036484 409.2809667944037 693.9879909036484 407.1170626802916L693.9879909036484 407.1170626802916Q692.6528160247282 392.52222003830127 690.9953575543444 385.73124436103444L690.9953575543444 385.73124436103444ZM732.2706775182066 451.200853941193L732.2706775182066 451.200853941193L732.4318193139384 449.70453726654097Q737.4041947250896 419.2257176167063 737.4041947250896 393.535111325758L737.4041947250896 393.535111325758Q737.4041947250896 371.48170556704076 734.5957234280505 360.86936730527805L734.5957234280505 360.86936730527805L733.7669941928586 357.232166773047Q732.9382649576668 355.5747083026633 732.9382649576668 353.2496623928194L732.9382649576668 353.2496623928194Q732.9382649576668 347.2874159507445 739.2458152477383 343.4660533662486L739.2458152477383 343.4660533662486Q745.6914870770084 338.83898180309393 759.2964586880752 338.83898180309393Q772.8784100426087 338.83898180309393 781.8332898339877 344.0415597795763Q790.7881696253665 349.2671580125917 795.7605450365179 358.0608960082389L795.7605450365179 358.0608960082389Q805.5441540630887 375.30306815153665 805.5441540630887 398.16218288891264L805.5441540630887 398.16218288891264Q805.5441540630887 419.2257176167063 799.2366037730171 435.2938566768155L799.2366037730171 435.2938566768155Q795.9216868322496 444.08759467246267 790.6270278296348 450.3721247060011Q785.3093485704869 456.67967499607266 776.9529954489689 460.5700983501678Q768.5736220709176 464.46052170426304 757.9612838091549 464.46052170426304L757.9612838091549 464.46052170426304Q750.0192953052327 464.46052170426304 743.8038260412936 462.5498404120151Q737.5883567773545 460.6621793763003 734.918007019514 457.9227688488604Q732.2706775182066 455.1833583214206 732.2706775182066 451.200853941193ZM780.0146895678722 395.19256979614175L780.0146895678722 395.19256979614175Q780.0146895678722 367.8445050348097 772.3949846554135 360.0406380700862L772.3949846554135 360.0406380700862Q769.724634897573 357.232166773047 767.4226092442622 357.232166773047L767.4226092442622 357.232166773047Q763.2789630683028 357.232166773047 762.7725174245744 361.37581294900644L762.7725174245744 361.37581294900644Q760.125187923267 378.4338230400393 760.125187923267 411.4218506519827L760.125187923267 411.4218506519827Q760.125187923267 422.8629181489373 760.9539171584589 433.3141146149683L760.9539171584589 433.3141146149683Q760.9539171584589 436.95131514719924 764.59111769069 436.95131514719924L764.59111769069 436.95131514719924Q780.0146895678722 436.95131514719924 780.0146895678722 395.19256979614175ZM846.3130283832226 337.3426651284419L846.3130283832226 337.3426651284419Q854.4391789394095 337.3426651284419 861.7135800038716 342.47618233532495L861.7135800038716 342.47618233532495Q881.7872437007416 356.5645793335869 881.7872437007416 404.4697331789842L881.7872437007416 404.4697331789842Q881.7872437007416 425.3491058545129 873.315789296558 444.08759467246267L873.315789296558 444.08759467246267Q869.1721431205985 453.52589985103685 861.3912964124081 459.32700449738Q853.6104497042177 465.1281091437232 844.2412052952429 465.1281091437232Q834.871960886268 465.1281091437232 828.3342080308654 461.0765439938962Q821.7734349189296 457.00195858753614 817.8830115648345 450.87857034972944Q813.9925882107393 444.7321618553897 811.5064005051636 436.7901733514675L811.5064005051636 436.7901733514675Q807.3627543292042 423.3693637926657 807.3627543292042 410.3398985949267Q807.3627543292042 397.33345365372077 809.1813545953197 386.3988318004946Q810.9999548614352 375.4642099472684 814.9824592416628 363.86200065458206Q818.9649636218905 352.25979136189574 827.0911141780775 344.80122824516883Q835.1942444777314 337.3426651284419 846.3130283832226 337.3426651284419ZM848.1316286493382 357.55445036451056L848.1316286493382 357.55445036451056Q842.998111442455 357.55445036451056 838.6012424446315 366.3481883601577Q834.2043734468078 375.1189060992718 831.9714085630964 386.55997359622637Q829.7384436793849 398.0010410931809 829.7384436793849 408.1069337112152Q829.7384436793849 418.21282632924954 832.6389960025565 423.69164738412917Q835.5395483257281 429.1704684390088 840.1666198888828 429.1704684390088L840.1666198888828 429.1704684390088Q847.3028994141462 429.1704684390088 852.5284976471617 416.7395299111306Q857.7540958801771 404.3085913832524 857.7540958801771 380.92001074561495Q857.7540958801771 357.55445036451056 848.1316286493382 357.55445036451056ZM921.5662469899519 414.0691801532902L917.4226008139924 415.4043550322104Q915.2586966998804 416.5553678588658 914.0156028470925 418.6271909468455Q912.7725089943046 420.69901403482515 912.4502254028412 423.69164738412917L912.4502254028412 423.69164738412917Q912.7725089943046 442.9135615892742 913.6012382294966 446.8039849433694Q914.4299674646884 450.7174285539977 914.4299674646884 452.02958317638485L914.4299674646884 452.02958317638485Q914.4299674646884 457.99182961845975 906.2347561389021 461.9743339986874Q898.0165245565827 465.95683837891505 891.8010552926435 465.95683837891505Q885.5855860287044 465.95683837891505 885.5855860287044 459.99459193684015L885.5855860287044 459.99459193684015L885.930889876701 457.34726243553274Q889.8903740003956 427.8352935600886 889.8903740003956 396.1824408270654L889.8903740003956 396.1824408270654L889.0616447652037 369.3178014529286Q889.0616447652037 365.01301348123746 886.345254494297 360.86936730527805Q883.6058439668572 356.7257211293187 883.6058439668572 353.75610803654774L883.6058439668572 353.75610803654774Q883.6058439668572 348.43842877739985 890.6500424659881 344.2947826014405Q897.6942409651191 340.15113642548107 905.8894522909054 338.42461718549794Q914.1076838732249 336.6750776889818 918.6656946667804 336.6750776889818Q923.2237054603356 336.6750776889818 926.3544603488383 336.99736128044526Q929.508235493874 337.3426651284419 935.4014211663496 339.00012359882567Q941.2715865822921 340.6575820692094 945.7605366062481 343.4660533662486Q950.2264663736711 346.29754491982084 953.633464340571 352.25979136189574Q957.0174420509379 358.2220378039707 957.0174420509379 367.59128221294554Q957.0174420509379 376.9605266219204 952.965876901111 385.98446718289864Q948.9143117512839 395.0084077438769 943.1132071049408 400.3260870030248L943.1132071049408 400.3260870030248Q931.3268357599895 410.9384252647875 921.5662469899519 414.0691801532902L921.5662469899519 414.0691801532902ZM926.1933185531066 384.90251512584257Q929.1859519024106 377.44395200911566 929.6693772896058 373.3923868592887Q930.1758229333342 369.3178014529286 930.1758229333342 366.2561073340253Q930.1758229333342 363.1944132151219 929.4391747242747 360.2938608919504Q928.6795062586822 357.3933085687788 927.6896352277586 355.9890729202592Q926.6997641968348 354.5848372717396 925.3645893179146 353.75610803654774L925.3645893179146 353.75610803654774Q923.5459890517991 352.58207495335927 921.8885305814154 352.58207495335927L921.8885305814154 352.58207495335927Q918.0671679969196 352.58207495335927 915.7651423436087 356.24229574212336Q913.4400964337649 359.87949627435444 913.4400964337649 363.86200065458206L913.4400964337649 363.86200065458206Q912.1049215548446 372.31043480223263 912.1049215548446 382.41632742026695Q912.1049215548446 392.52222003830127 912.2660633505764 394.179678508685L912.2660633505764 394.179678508685Q912.2660633505764 397.0111700622573 914.5911092604201 397.0111700622573L914.5911092604201 397.0111700622573Q916.0874259350722 397.0111700622573 918.0671679969196 395.675995183337L918.0671679969196 395.675995183337Q923.2237054603356 392.3610782425695 926.1933185531066 384.90251512584257ZM968.803813395889 339.6677110382858L968.803813395889 339.6677110382858L984.5496688645349 340.4964402734777Q992.4916573684569 340.4964402734777 996.1518781572211 338.65481975082906L996.1518781572211 338.65481975082906Q998.2927620148001 337.8260905156372 1000.2955243331805 337.8260905156372L1000.2955243331805 337.8260905156372Q1004.0938666611432 337.8260905156372 1004.0938666611432 343.3049115705168L1004.0938666611432 343.3049115705168Q1004.0938666611432 347.609699542208 1002.114124599296 353.2496623928194L1002.114124599296 353.2496623928194L1001.6076789555675 355.06826265893494Q998.4539038105318 364.85187168550567 987.5192819573056 364.85187168550567L987.5192819573056 364.85187168550567Q985.1942360474618 364.85187168550567 985.1942360474618 367.49920118681314L985.1942360474618 367.49920118681314Q984.7108106602665 382.25518562453516 984.7108106602665 408.0378729416159Q984.7108106602665 433.7975400021635 986.8516945178455 449.2211118793457L986.8516945178455 449.2211118793457Q987.1969983658421 450.2109829102693 987.1969983658421 451.5461577891896L987.1969983658421 451.5461577891896Q987.1969983658421 455.50564191288413 983.3756357813463 458.49827526218814L983.3756357813463 458.49827526218814Q974.766059837964 465.4503927351867 962.6574049015492 465.4503927351867L962.6574049015492 465.4503927351867Q956.8563002552062 465.4503927351867 956.8563002552062 459.99459193684015L956.8563002552062 459.99459193684015L957.3627458989345 456.8408167918044Q962.818546697281 414.5756257970185 962.818546697281 367.8445050348097L962.818546697281 367.8445050348097Q962.818546697281 366.6704719516212 962.3351213100857 366.18704656442594Q961.8286756663574 365.6806009206976 959.0202043693182 365.6806009206976Q956.1887128157459 365.6806009206976 953.1270186968427 367.49920118681314Q950.0653245779392 369.3178014529286 948.4078661075555 369.3178014529286L948.4078661075555 369.3178014529286Q944.9318073710563 369.3178014529286 944.9318073710563 364.4375070679098Q944.9318073710563 359.5572126828909 947.3259140504995 352.92737880135587Q949.7430409864758 346.29754491982084 953.9557479320345 342.9826279790533Q958.1914751341263 339.6677110382858 968.803813395889 339.6677110382858ZM1035.9308814464316 453.52589985103685Q1035.9308814464316 459.48814629311175 1027.6435890945127 463.378569647207Q1019.3562967425937 467.2920132578353 1013.3019692743864 467.2920132578353Q1007.247641806179 467.2920132578353 1007.247641806179 461.81319220295563L1007.247641806179 461.81319220295563L1007.7540874499074 458.6594170579199Q1011.8977336258667 428.66402279528046 1011.8977336258667 396.1824408270654L1011.8977336258667 396.1824408270654L1011.0690043906749 370.4918345361171Q1010.7237005426782 364.5295880940422 1007.0865000104473 359.87949627435444L1007.0865000104473 359.87949627435444Q1005.2678997443318 358.0608960082389 1005.2678997443318 355.4135665069315L1005.2678997443318 355.4135665069315Q1005.2678997443318 349.42829980832346 1014.4529821010417 344.3868636275729Q1023.6610847142849 339.32240719028914 1029.0478247430324 339.32240719028914Q1034.4345647717792 339.32240719028914 1034.756848363243 344.80122824516883L1034.756848363243 344.80122824516883Q1034.9179901589746 346.7809703070161 1034.9179901589746 352.9964395709552Q1034.9179901589746 359.2119088348943 1034.0892609237826 369.98538889238876L1034.0892609237826 369.98538889238876Q1033.6058355365876 388.0562902708783 1033.6058355365876 414.98999041461445Q1033.6058355365876 441.92369055835053 1035.424435802703 451.03971214546124L1035.424435802703 451.03971214546124Q1035.9308814464316 452.02958317638485 1035.9308814464316 453.52589985103685L1035.9308814464316 453.52589985103685ZM1078.1960724412174 337.3426651284419L1078.1960724412174 337.3426651284419Q1086.2992027408714 337.3426651284419 1093.5966240618664 342.47618233532495L1093.5966240618664 342.47618233532495Q1113.6472675022032 356.5645793335869 1113.6472675022032 404.4697331789842L1113.6472675022032 404.4697331789842Q1113.6472675022032 425.3491058545129 1105.1988333545528 444.08759467246267L1105.1988333545528 444.08759467246267Q1101.0551871785933 453.52589985103685 1093.2743404704029 459.32700449738Q1085.4704735056794 465.1281091437232 1076.1242493532377 465.1281091437232Q1066.7550049442625 465.1281091437232 1060.1942318323268 461.0765439938962Q1053.6564789769245 457.00195858753614 1049.7660556228293 450.87857034972944Q1045.875632268734 444.7321618553897 1043.3894445631581 436.7901733514675L1043.3894445631581 436.7901733514675Q1039.245798387199 423.3693637926657 1039.245798387199 410.3398985949267Q1039.245798387199 397.33345365372077 1041.0643986533146 386.3988318004946Q1042.88299891943 375.4642099472684 1046.8655032996576 363.86200065458206Q1050.848007679885 352.25979136189574 1058.951137979539 344.80122824516883Q1067.0772885357264 337.3426651284419 1078.1960724412174 337.3426651284419ZM1080.014672707333 357.55445036451056L1080.014672707333 357.55445036451056Q1074.88115550045 357.55445036451056 1070.4842865026262 366.3481883601577Q1066.0874175048025 375.1189060992718 1063.8544526210912 386.55997359622637Q1061.6214877373795 398.0010410931809 1061.6214877373795 408.1069337112152Q1061.6214877373795 418.21282632924954 1064.5220400605513 423.69164738412917Q1067.422592383723 429.1704684390088 1072.0496639468774 429.1704684390088L1072.0496639468774 429.1704684390088Q1079.185943472141 429.1704684390088 1084.4115417051562 416.7395299111306Q1089.6141196816388 404.3085913832524 1089.6141196816388 380.92001074561495Q1089.6141196816388 357.55445036451056 1080.014672707333 357.55445036451056ZM1123.7761803767708 387.54984462715L1123.7761803767708 382.41632742026695L1123.4308765287742 372.6327183936961L1123.4308765287742 371.6428473627725Q1123.4308765287742 366.831613747353 1121.2899926711948 361.5369547447382L1121.2899926711948 361.5369547447382L1120.6224052317348 359.87949627435444Q1118.8038049656193 357.55445036451056 1118.8038049656193 354.4006752194748Q1118.8038049656193 351.2699203309721 1122.4410054978503 348.0240641598039Q1126.0782060300812 344.80122824516883 1131.3958852892292 342.9826279790533L1131.3958852892292 342.9826279790533Q1142.4916489381872 339.1612653945574 1150.2955159029107 339.1612653945574Q1158.076362611101 339.1612653945574 1159.572679285753 345.7910992760925L1159.572679285753 345.7910992760925Q1161.5524213476006 352.42093315762753 1163.9695482835768 363.76991962844966Q1166.36365496302 375.1189060992718 1167.3535259939435 378.94026868376767L1167.3535259939435 378.94026868376767Q1170.000855495251 390.0360323327256 1173.154630640287 396.1824408270654L1173.154630640287 396.1824408270654Q1173.661076284015 396.66586621426063 1174.3286637234755 396.66586621426063L1174.3286637234755 396.66586621426063Q1175.986122193859 396.66586621426063 1176.3084057853225 392.8675238862979L1176.3084057853225 392.8675238862979Q1176.3084057853225 377.950397652844 1175.7328993719948 369.73216607052456Q1175.157392958667 361.5369547447382 1175.157392958667 357.14008574691456Q1175.157392958667 352.743216749091 1175.6408183458625 351.2699203309721L1175.6408183458625 351.2699203309721Q1177.459418611978 345.7910992760925 1183.1914624887218 342.1538987438614Q1188.9004861089325 338.49367795509727 1194.1260843419482 338.49367795509727Q1199.3516825749634 338.49367795509727 1199.3516825749634 342.63732413105674L1199.3516825749634 342.63732413105674Q1199.3516825749634 343.62719516198035 1197.0266366651194 355.2294044546667L1197.0266366651194 355.2294044546667Q1191.3866738145084 384.5802315343791 1191.3866738145084 426.5001186811683L1191.3866738145084 426.5001186811683Q1191.3866738145084 440.4273738836985 1192.376544845432 455.8509457608808L1192.376544845432 455.8509457608808L1192.376544845432 456.51853320034087Q1192.376544845432 461.81319220295563 1186.7596022513535 463.30950887760764L1186.7596022513535 463.30950887760764Q1182.4317940231294 464.46052170426304 1177.5514996381103 464.46052170426304Q1172.6712052530916 464.46052170426304 1166.2715739368878 462.2275568205516Q1159.8949628772166 459.99459193684015 1159.066233642025 454.8610747299571L1159.066233642025 454.8610747299571Q1154.4391620788701 427.0065643248967 1146.9805989621432 398.9909121241045L1146.9805989621432 398.9909121241045L1144.4944112565677 389.55260694553033Q1143.481519969111 386.905277444223 1142.1693653467237 386.905277444223L1142.1693653467237 386.905277444223Q1139.3378737931516 386.905277444223 1139.3378737931516 421.7119053222819L1139.3378737931516 421.7119053222819Q1139.3378737931516 433.63639820643175 1139.8443194368797 442.7524197935424Q1140.3507650806082 451.8684413806531 1140.3507650806082 453.52589985103685L1140.3507650806082 453.52589985103685Q1140.3507650806082 457.99182961845975 1137.266050705172 461.0765439938962Q1134.2043565862687 464.1382381127995 1129.7384268188457 465.289250939455L1129.7384268188457 465.289250939455Q1122.2798637021187 467.45315505356706 1117.9750757304273 467.45315505356706Q1113.6472675022032 467.45315505356706 1113.6472675022032 463.47065067333943L1113.6472675022032 463.47065067333943Q1113.6472675022032 462.13547579441916 1116.3176172600438 452.28280599824905Q1118.9649467613513 442.4301362020789 1119.4483721485462 439.75978644423844L1119.4483721485462 439.75978644423844Q1123.7761803767708 418.21282632924954 1123.7761803767708 387.54984462715L1123.7761803767708 387.54984462715ZM1315.69605909329 445.7450531428464L1315.69605909329 445.7450531428464Q1318.527550646862 447.7247952046937 1318.527550646862 450.87857034972944L1318.527550646862 450.87857034972944Q1318.527550646862 457.00195858753614 1310.3093190645427 461.14560476349556Q1302.1141077387565 465.289250939455 1295.1389700092245 465.289250939455L1295.1389700092245 465.289250939455Q1289.683169210878 465.289250939455 1287.1969815053026 462.8030632338793L1287.1969815053026 462.8030632338793Q1285.194219186922 460.823321172032 1285.0330773911905 456.9328978179368Q1284.8719355954586 453.0194542073085 1284.710793799727 448.55352443988556Q1284.549652003995 444.08759467246267 1284.4575709778628 440.4273738836985Q1284.3654899517305 436.7901733514675 1282.8921935336111 434.2119046197594Q1281.3958768589596 431.6566561445845 1280.060701980039 431.15021050085613L1280.060701980039 431.15021050085613Q1278.564385305387 430.482623061396 1271.8654906542529 430.482623061396Q1265.1435757465852 430.482623061396 1261.5063752143542 431.978939736048L1261.5063752143542 431.978939736048Q1257.8461544255902 433.63639820643175 1254.5312374848227 447.4025116132302L1254.5312374848227 447.4025116132302Q1253.7025082496307 450.7174285539977 1253.5413664538987 451.03971214546124L1253.5413664538987 451.03971214546124Q1249.0754366864758 466.11798017464685 1231.8332645431783 466.11798017464685L1231.8332645431783 466.11798017464685Q1223.7071139869913 466.11798017464685 1223.7071139869913 461.3067465592273L1223.7071139869913 461.3067465592273Q1223.7071139869913 457.830687822728 1226.3544434882988 453.68704164676865L1226.3544434882988 453.68704164676865L1227.3673347757558 452.19072497211664Q1239.6141112513692 429.81503562193586 1249.6509430998035 396.09035980093296Q1259.6877749482387 362.36568397993005 1259.6877749482387 355.06826265893494L1259.6877749482387 355.06826265893494Q1259.6877749482387 352.25979136189574 1258.7669646869144 350.18796827391606Q1257.8461544255902 348.1161451859364 1257.8461544255902 346.94211210274784L1257.8461544255902 346.94211210274784Q1257.8461544255902 338.65481975082906 1272.1187134761171 338.65481975082906L1272.1187134761171 338.65481975082906Q1280.889431215231 338.65481975082906 1287.2660422749018 342.061817717729Q1293.6656735911056 345.46881568462896 1295.3231320614896 352.743216749091L1295.3231320614896 352.743216749091Q1302.275249534488 407.4393462717551 1307.569908537103 426.3389768854366L1307.569908537103 426.3389768854366Q1311.391271121599 442.7524197935424 1315.69605909329 445.7450531428464ZM1275.2494683646196 385.73124436103444L1274.7660429774241 383.91264409491896Q1274.6049011816926 381.9329020330717 1273.5920098942356 381.9329020330717L1273.5920098942356 381.9329020330717Q1273.1085845070406 381.9329020330717 1271.934551423852 383.40619845119056L1271.934551423852 383.40619845119056Q1265.1435757465852 401.3159580339484 1265.1435757465852 408.1069337112152L1265.1435757465852 408.1069337112152Q1265.1435757465852 410.1096960295956 1266.4787506255057 410.59312141679084Q1267.7909052478926 411.09956706051923 1271.4511260366567 411.09956706051923Q1275.0883265688876 411.09956706051923 1276.6767242696724 410.1787567991949Q1278.2421017139236 409.2809667944037 1278.2421017139236 407.1170626802916L1278.2421017139236 407.1170626802916Q1276.906926835003 392.52222003830127 1275.2494683646196 385.73124436103444L1275.2494683646196 385.73124436103444ZM1411.3452249883526 434.14284385016015Q1411.3452249883526 449.70453726654097 1405.198816494013 456.67967499607266Q1399.0754282562061 463.6317924690712 1375.8710096708337 463.6317924690712L1375.8710096708337 463.6317924690712Q1365.2586714090708 463.6317924690712 1359.8719313803235 462.48077964241577Q1354.4851913515763 461.3067465592273 1353.3341785249213 459.90251091070775Q1352.1601454417328 458.49827526218814 1352.1601454417328 455.8509457608808L1352.1601454417328 455.8509457608808L1352.5054492897293 453.3647580553051Q1356.3037916176922 432.8076689712399 1356.3037916176922 397.49459544945256L1356.3037916176922 397.49459544945256L1355.6362041782318 369.3178014529286Q1355.3139205867683 363.3555550108537 1351.8378618502693 358.54432139543417L1351.8378618502693 358.54432139543417Q1349.6739577361568 356.40343753785515 1349.6739577361568 354.0783916280113L1349.6739577361568 354.0783916280113Q1349.6739577361568 348.5995705731316 1359.710789584592 343.3049115705168Q1369.7246011764937 338.01025256790206 1375.3645640271052 338.01025256790206Q1381.0045268777167 338.01025256790206 1381.0045268777167 342.63732413105674L1381.0045268777167 342.63732413105674Q1378.8406227636046 359.2119088348943 1378.4262581460084 372.8859412155603Q1378.0118935284127 386.55997359622637 1378.0118935284127 404.05536856138826Q1378.0118935284127 421.527743270017 1378.1960555806777 425.1879640587812Q1378.3571973764092 428.8251645910122 1378.4262581460084 429.1704684390088Q1378.5183391721412 429.49275203047233 1378.932703789737 430.3214812656642Q1379.3470684073332 431.15021050085613 1380.1757976425247 431.8177979403162L1380.1757976425247 431.8177979403162Q1382.1555397043721 433.3141146149683 1386.2991858803316 433.3141146149683L1386.2991858803316 433.3141146149683Q1395.415207467442 433.3141146149683 1400.8940285223216 427.0065643248967L1400.8940285223216 427.0065643248967Q1403.541358023629 424.3592348235893 1406.1886875249365 424.3592348235893L1406.1886875249365 424.3592348235893Q1411.3452249883526 424.3592348235893 1411.3452249883526 434.14284385016015L1411.3452249883526 434.14284385016015ZM1442.169348486184 453.52589985103685Q1442.169348486184 459.48814629311175 1433.8820561342654 463.378569647207Q1425.5947637823465 467.2920132578353 1419.5404363141392 467.2920132578353Q1413.486108845932 467.2920132578353 1413.486108845932 461.81319220295563L1413.486108845932 461.81319220295563L1413.99255448966 458.6594170579199Q1418.1362006656195 428.66402279528046 1418.1362006656195 396.1824408270654L1418.1362006656195 396.1824408270654L1417.3074714304275 370.4918345361171Q1416.962167582431 364.5295880940422 1413.3249670502 359.87949627435444L1413.3249670502 359.87949627435444Q1411.5063667840845 358.0608960082389 1411.5063667840845 355.4135665069315L1411.5063667840845 355.4135665069315Q1411.5063667840845 349.42829980832346 1420.6914491407947 344.3868636275729Q1429.8995517540375 339.32240719028914 1435.2862917827847 339.32240719028914Q1440.673031811532 339.32240719028914 1440.9953154029954 344.80122824516883L1440.9953154029954 344.80122824516883Q1441.1794774552604 346.7809703070161 1441.1794774552604 352.9964395709552Q1441.1794774552604 359.2119088348943 1440.3507482200685 369.98538889238876L1440.3507482200685 369.98538889238876Q1439.84430257634 388.0562902708783 1439.84430257634 414.98999041461445Q1439.84430257634 441.92369055835053 1441.6629028424559 451.03971214546124L1441.6629028424559 451.03971214546124Q1442.169348486184 452.02958317638485 1442.169348486184 453.52589985103685L1442.169348486184 453.52589985103685ZM1486.0919979513537 382.41632742026695L1486.0919979513537 382.41632742026695L1492.7218318328887 382.25518562453516Q1497.3489033960432 382.25518562453516 1497.3489033960432 387.22756103568645L1497.3489033960432 387.22756103568645Q1497.3489033960432 393.8573949172215 1492.7218318328887 397.42553467985323Q1488.0717400132012 400.9936744424849 1481.1196225402023 401.4770998296802L1481.1196225402023 401.4770998296802Q1478.6334348346268 401.4770998296802 1476.561611746647 402.720193682468Q1474.4897886586673 403.9632875352558 1474.3286468629358 405.4596042099078L1474.3286468629358 405.4596042099078Q1473.1546137797473 417.56825914632253 1473.1546137797473 433.63639820643175Q1473.1546137797473 449.70453726654097 1474.8120722501308 465.289250939455L1474.8120722501308 465.289250939455Q1475.3185178938593 466.9467094098387 1475.3185178938593 469.0185324978184Q1475.3185178938593 471.0903555857981 1474.3286468629358 473.0931179041785L1474.3286468629358 473.0931179041785Q1471.1748717178998 478.7100604982568 1465.0284632235603 482.2091394912892L1465.0284632235603 482.2091394912892Q1456.7411708716413 486.675069258712 1450.3645598119706 486.675069258712Q1443.9879487522994 486.675069258712 1443.9879487522994 482.02497743902427L1443.9879487522994 482.02497743902427L1444.65553619176 478.7100604982568Q1451.124228277563 452.19072497211664 1451.124228277563 408.26807550694696L1451.124228277563 408.26807550694696L1451.124228277563 406.28833344509974Q1451.124228277563 405.2984624141761 1450.2954990423714 405.2984624141761L1450.2954990423714 405.2984624141761Q1443.9879487522994 405.2984624141761 1443.9879487522994 399.65849956356465L1443.9879487522994 399.65849956356465Q1443.9879487522994 396.34358262279716 1446.7964200493388 390.2892551545898Q1449.627911602911 384.23492768638243 1452.7816867479469 383.40619845119056L1452.7816867479469 383.40619845119056Q1452.9428285436784 381.26531459361155 1452.9428285436784 378.1115394485758L1452.9428285436784 378.1115394485758Q1452.9428285436784 362.87212962365845 1447.9704531325274 358.8896252434308L1447.9704531325274 358.8896252434308Q1446.3129946621434 356.8868629250504 1446.3129946621434 353.9172498322795L1446.3129946621434 353.9172498322795Q1446.3129946621434 348.5995705731316 1453.2651121351419 344.4559243971722L1453.2651121351419 344.4559243971722Q1466.5247798982123 337.3426651284419 1484.2733976852383 337.3426651284419L1484.2733976852383 337.3426651284419Q1488.5781856569292 337.3426651284419 1491.317596184369 337.6649487199054Q1494.0339864552757 338.01025256790206 1496.7043362131167 339.89791360361687Q1499.3516657144237 341.8085948958648 1499.3516657144237 345.46881568462896L1499.3516657144237 345.46881568462896Q1499.3516657144237 351.5922039224356 1490.3967859230452 354.239533423743Q1481.4419061316657 356.8868629250504 1478.2881309866302 361.5369547447382Q1475.1573760981273 366.18704656442594 1475.1573760981273 374.4743389163448L1475.1573760981273 374.4743389163448Q1475.1573760981273 376.29293918246026 1475.4796596895908 379.9301397146913L1475.4796596895908 379.9301397146913Q1475.6408014853228 382.41632742026695 1486.0919979513537 382.41632742026695ZM1538.7853651556375 382.41632742026695L1538.7853651556375 382.41632742026695L1546.428090324629 382.25518562453516Q1551.055161887784 382.25518562453516 1551.055161887784 388.0562902708783Q1551.055161887784 393.8573949172215 1545.8295636547682 397.49459544945256Q1540.626985678286 401.15481623821665 1532.8231187135625 401.4770998296802L1532.8231187135625 401.4770998296802Q1522.717226095528 401.4770998296802 1522.049638656068 405.4596042099078L1522.049638656068 405.4596042099078Q1521.5662132688726 408.6133793549436 1521.5662132688726 412.757025530903Q1521.5662132688726 416.9006717068624 1522.2107804518 420.3767304433617Q1522.87836789126 423.85278917986096 1524.6969681573755 427.51300996862506L1524.6969681573755 427.51300996862506Q1528.679472537603 435.8003023205439 1539.6140943908295 435.8003023205439L1539.6140943908295 435.8003023205439Q1544.425328006249 435.8003023205439 1547.256819559821 433.72847923256415Q1550.06529085686 431.6566561445845 1552.7126203581674 431.6566561445845Q1555.359949859475 431.6566561445845 1556.856266534127 434.3730464154912Q1558.352583208779 437.11245694293103 1558.352583208779 440.2662320879668L1558.352583208779 440.2662320879668Q1558.352583208779 450.87857034972944 1549.3977034174 457.7616270531287Q1540.442823626021 464.62166349999484 1529.0247763855996 464.62166349999484L1529.0247763855996 464.62166349999484Q1497.5330654483082 464.62166349999484 1497.5330654483082 418.0516845335178L1497.5330654483082 418.0516845335178L1498.1776326312352 405.2984624141761Q1492.5606900371572 405.2984624141761 1492.5606900371572 399.81964135929644L1492.5606900371572 399.81964135929644Q1492.5606900371572 395.5148533876053 1495.115938512332 390.22019438499046Q1497.6942072440402 384.90251512584257 1501.1702659805392 383.40619845119056L1501.1702659805392 383.40619845119056Q1501.8378534199992 376.29293918246026 1504.4851829213067 367.7524240086773Q1507.1325124226141 359.2119088348943 1512.1048878337656 352.42093315762753L1512.1048878337656 352.42093315762753Q1521.888496860336 339.00012359882567 1542.2844441486695 339.00012359882567L1542.2844441486695 339.00012359882567Q1554.87652447228 339.00012359882567 1557.2015703821235 344.87028901476816Q1559.5035960354344 350.76347468724373 1559.5035960354344 354.5848372717396L1559.5035960354344 354.5848372717396Q1559.5035960354344 363.51669680658546 1553.886653441356 363.51669680658546L1553.886653441356 363.51669680658546Q1552.390336766704 363.51669680658546 1549.0754198259365 361.85923833620166Q1545.760502885169 360.2017798658179 1541.1104110654815 360.2017798658179L1541.1104110654815 360.2017798658179Q1532.984260509294 360.2017798658179 1528.1039661242753 366.2561073340253Q1523.2236717392566 372.31043480223263 1523.2236717392566 379.9301397146913L1523.2236717392566 379.9301397146913Q1523.2236717392566 382.0940438288034 1527.9428243285438 382.25518562453516Q1532.6619769178305 382.41632742026695 1538.7853651556375 382.41632742026695Z " fill="#add8e6" transform="matrix(0.561075975116135,0,0,0.561075975116135,0,69.01898683477577)"/></g></svg>